<svg width="16" height="16" viewBox="0 0 16 16" fill="none" xmlns="http://www.w3.org/2000/svg">
<path id="Vector" d="M9.62129 9.47239C9.44747 9.66187 9.23787 9.81384 9.00498 9.91925C8.77209 10.0246 8.52069 10.0813 8.26576 10.0859C8.01084 10.0905 7.75762 10.0428 7.52121 9.94581C7.2848 9.84881 7.07005 9.70444 6.88976 9.5213C6.70947 9.33816 6.56734 9.12002 6.47184 8.87987C6.37635 8.63973 6.32945 8.38251 6.33395 8.12356C6.33844 7.86461 6.39423 7.60924 6.498 7.37267C6.60176 7.1361 6.75137 6.92319 6.9379 6.74663M1.31799 1.03796L15.2412 15.1811M12.0389 11.9281C10.9571 12.7658 9.63977 13.2298 8.27968 13.2524C3.84965 13.2523 1.31811 8.10939 1.31811 8.10939C2.1053 6.6192 3.19712 5.31724 4.52033 4.29088L12.0389 11.9281ZM6.9505 3.12092C7.38612 3.01735 7.83212 2.96558 8.27951 2.96665C12.7095 2.96673 15.2411 8.10963 15.2411 8.10963C14.8569 8.83966 14.3988 9.52695 13.8741 10.1603L6.9505 3.12092Z" stroke="#BDBDBD" stroke-linecap="round" stroke-linejoin="round"/>
</svg>
