<svg width="16" height="16" viewBox="0 0 16 16" fill="none" xmlns="http://www.w3.org/2000/svg">
<path d="M9.62141 9.47227C9.4476 9.66175 9.23799 9.81372 9.0051 9.91912C8.77221 10.0245 8.52081 10.0812 8.26588 10.0858C8.01096 10.0903 7.75774 10.0427 7.52133 9.94569C7.28492 9.84869 7.07017 9.70432 6.88988 9.52118C6.70959 9.33804 6.56746 9.11989 6.47197 8.87975C6.37647 8.63961 6.32957 8.38239 6.33407 8.12344C6.33856 7.86449 6.39435 7.60911 6.49812 7.37255C6.60188 7.13598 6.7515 6.92307 6.93803 6.74651M1.31812 1.03784L15.2413 15.1809M12.039 11.928C10.9572 12.7657 9.63989 13.2297 8.2798 13.2522C3.84977 13.2522 1.31823 8.10927 1.31823 8.10927C2.10542 6.61907 3.19724 5.31712 4.52045 4.29075L12.039 11.928ZM6.95062 3.1208C7.38624 3.01723 7.83224 2.96546 8.27963 2.96653C12.7097 2.96661 15.2412 8.10951 15.2412 8.10951C14.8571 8.83953 14.3989 9.52682 13.8743 10.1602L6.95062 3.1208Z" stroke="#285A9F" stroke-linecap="round" stroke-linejoin="round"/>
</svg>
